<?xml version="1.0" encoding="utf-8"?><svg xmlns="http://www.w3.org/2000/svg" xmlns:xlink="http://www.w3.org/1999/xlink"><symbol viewBox="0 0 9 10" id="copy"><path d="M7.875 2.14286H6.75V1.07143C6.75 0.787276 6.63148 0.514733 6.42051 0.3138C6.20953 0.112867 5.92336 0 5.625 0H1.125C0.82664 0 0.54047 0.112876 0.32949 0.3138C0.11851 0.514733 0 0.787276 0 1.07143V6.78571C0 7.06987 0.11852 7.34241 0.32949 7.54334C0.54047 7.74428 0.82664 7.85714 1.125 7.85714H2.25V8.92857C2.25 9.21272 2.36852 9.48527 2.57949 9.6862C2.79047 9.88713 3.07664 10 3.375 10H7.875C8.17336 10 8.45953 9.88712 8.67051 9.6862C8.88149 9.48527 9 9.21272 9 8.92857V3.21429C9 2.93013 8.88148 2.65759 8.67051 2.45666C8.45953 2.25572 8.17336 2.14286 7.875 2.14286ZM1.125 7.14286C1.02555 7.14286 0.93016 7.10525 0.85984 7.03825C0.789488 6.97128 0.75 6.88044 0.75 6.78571V1.07143C0.75 0.976712 0.789492 0.885867 0.85984 0.818895C0.930152 0.751893 1.02554 0.714286 1.125 0.714286H5.625C5.72445 0.714286 5.81984 0.751897 5.89016 0.818895C5.96051 0.885859 6 0.976705 6 1.07143V6.78571C6 6.88043 5.96051 6.97128 5.89016 7.03825C5.81985 7.10525 5.72446 7.14286 5.625 7.14286H1.125ZM8.25 8.92857C8.25 9.02329 8.21051 9.11413 8.14016 9.1811C8.06985 9.24811 7.97446 9.28572 7.875 9.28572H3.375C3.27555 9.28572 3.18016 9.2481 3.10984 9.1811C3.03949 9.11414 3 9.0233 3 8.92857V7.85714H5.625C5.92336 7.85714 6.20953 7.74427 6.42051 7.54334C6.63149 7.34241 6.75 7.06987 6.75 6.78571V2.85714H7.875C7.97445 2.85714 8.06984 2.89475 8.14016 2.96175C8.21051 3.02872 8.25 3.11956 8.25 3.21429V8.92857Z"/></symbol></svg>