<svg viewBox="0 0 20 20" xmlns="http://www.w3.org/2000/svg"><path d="m6.82556 0h-4.76223c-1.139544 0-2.06333.923786-2.06333 2.06333v4.76223c0 1.13954.923786 2.06333 2.06333 2.06333h4.76223c1.13954 0 2.06333-.92379 2.06333-2.06333v-4.76223c0-1.139544-.92379-2.06333-2.06333-2.06333z"/><path d="m17.9367 0h-4.7623c-1.1395 0-2.0633.923786-2.0633 2.06333v4.76223c0 1.13954.9238 2.06333 2.0633 2.06333h4.7623c1.1395 0 2.0633-.92379 2.0633-2.06333v-4.76223c0-1.139544-.9238-2.06333-2.0633-2.06333z"/><path d="m6.82556 11.1111h-4.76223c-1.139544 0-2.06333.9238-2.06333 2.0633v4.7623c0 1.1395.923786 2.0633 2.06333 2.0633h4.76223c1.13954 0 2.06333-.9238 2.06333-2.0633v-4.7623c0-1.1395-.92379-2.0633-2.06333-2.0633z"/><path d="m17.9367 11.1111h-4.7623c-1.1395 0-2.0633.9238-2.0633 2.0633v4.7623c0 1.1395.9238 2.0633 2.0633 2.0633h4.7623c1.1395 0 2.0633-.9238 2.0633-2.0633v-4.7623c0-1.1395-.9238-2.0633-2.0633-2.0633z"/></svg>