<svg viewBox="0 0 18 10" xmlns="http://www.w3.org/2000/svg">
<path d="M9.02212 10C8.54477 9.99991 8.087 9.82461 7.74952 9.51266L0.549519 2.85962C0.377601 2.70619 0.240473 2.52266 0.146136 2.31974C0.0518001 2.11681 0.00214483 1.89856 6.79627e-05 1.67771C-0.00200891 1.45687 0.0435338 1.23785 0.134039 1.03344C0.224545 0.829032 0.358201 0.643327 0.527207 0.487159C0.696214 0.330991 0.897188 0.207489 1.1184 0.123858C1.33961 0.0402282 1.57664 -0.0018563 1.81564 6.27976e-05C2.05464 0.00198189 2.29084 0.0478651 2.51045 0.135035C2.73005 0.222205 2.92867 0.348917 3.09472 0.507775L9.02212 5.98489L14.9495 0.507775C15.289 0.204799 15.7437 0.0371514 16.2156 0.040941C16.6876 0.0447306 17.1391 0.219654 17.4728 0.528035C17.8065 0.836417 17.9958 1.25358 17.9999 1.68969C18.004 2.12579 17.8226 2.54593 17.4947 2.85962L10.2947 9.51266C9.95723 9.82461 9.49947 9.99991 9.02212 10Z"/>
</svg>
