<svg enable-background="new 0 0 13.5 16" viewBox="0 0 13.5 16" xmlns="http://www.w3.org/2000/svg"><path d="m11.5 12.8c-.7.5-1.5.7-2.4.7-.8 0-1.5-.2-2.2-.6s-1.2-.9-1.7-1.5h4.4c.3 0 .6-.1.9-.4.2-.2.4-.6.4-.9s-.1-.7-.4-.9c-.2-.2-.5-.4-.9-.4h-5.3c-.1-.6-.1-1.1 0-1.7h5.3c.3 0 .6-.1.9-.4.2-.2.4-.6.4-.9s-.2-.6-.4-.8-.5-.4-.9-.4h-4.3c.4-.6 1-1.2 1.6-1.5.7-.4 1.4-.6 2.2-.6s1.7.3 2.4.7c.1.1.3.2.5.2h.5c.2 0 .3-.1.5-.2-0-.1.1-.2.2-.3s.1-.3.2-.5c0-.2 0-.3 0-.5s-.1-.3-.2-.5-.2-.3-.4-.3c-1.1-.7-2.4-1.1-3.7-1.1-1.4 0-2.8.5-4 1.3s-2.1 2-2.7 3.3h-1.1c-.3 0-.6.2-.8.4-.3.2-.4.6-.4.9s.1.7.4.9c.2.2.5.4.8.4h.5v.8s0 .6 0 .8h-.5c-.3 0-.6.2-.8.4s-.4.6-.4.9.1.7.4.9c.2.2.6.4.9.4h1.1c.5 1.3 1.5 2.5 2.6 3.3s2.6 1.3 4 1.3c1.3 0 2.6-.4 3.7-1.1.1-.1.3-.2.4-.3s.2-.3.2-.5 0-.3 0-.5-.1-.3-.2-.5c-.1-.1-.2-.3-.3-.4s-.3-.2-.5-.2-.3 0-.5 0c-.1.1-.3.2-.4.3z"/></svg>