<svg viewBox="0 0 12 16" xmlns="http://www.w3.org/2000/svg">
<path d="m6 7.57895c2.29411 0 4.1538-1.69661 4.1538-3.78948 0-2.09286-1.85969-3.78947-4.1538-3.78947s-4.15385 1.69661-4.15385 3.78947c0 2.09287 1.85974 3.78948 4.15385 3.78948z"/><path d="m7.38462 8.42105h-2.76924c-1.22362.00134-2.39671.44538-3.26195 1.23471-.865231.78934-1.35196429 1.85954-1.35343 2.97584v2.5263c0 .2233.0972527.4375.270363.5955.173111.1579.407899.2466.652714.2466h10.153823c.2448 0 .4796-.0887.6527-.2466.1731-.158.2704-.3722.2704-.5955v-2.5263c-.0015-1.1163-.4882-2.1865-1.3534-2.97584-.86527-.78933-2.03836-1.23337-3.26198-1.23471z"/>
</svg>