<?xml version="1.0" encoding="UTF-8"?>
<svg width="1200pt" height="1200pt" version="1.1" viewBox="0 0 1200 1200" xmlns="http://www.w3.org/2000/svg">
 <path d="m348 702c0 138.96 113.04 252 252 252s252-113.04 252-252-113.04-252-252-252-252 113.04-252 252zm408 0c0 86.039-69.961 156-156 156s-156-69.961-156-156 69.961-156 156-156 156 69.961 156 156z"/>
 <path d="m936 450c14.398 0 28.559-6.4805 38.039-18.719 16.199-21 12.359-51.121-8.6406-67.32-98.641-76.078-228.36-117.96-365.28-117.96-136.92 0-266.64 41.879-365.28 117.96-21 16.199-24.84 46.32-8.6406 67.32 16.199 21 46.32 24.84 67.32 8.6406 81.961-63.238 190.92-98.039 306.72-98.039 115.8 0 224.76 34.801 306.72 98.039 8.7617 6.7188 19.078 9.9609 29.281 9.9609z"/>
</svg>
