<?xml version="1.0" encoding="utf-8"?>
<!-- Generator: Adobe Illustrator 26.0.1, SVG Export Plug-In . SVG Version: 6.00 Build 0)  -->
<svg version="1.1" id="Calque_1" xmlns="http://www.w3.org/2000/svg" xmlns:xlink="http://www.w3.org/1999/xlink" x="0px" y="0px"
	 viewBox="0 0 19.1 17.5" style="enable-background:new 0 0 19.1 17.5;" xml:space="preserve">
<g>
	<line x1="1.3" y1="1.8" x2="17.8" y2="1.8"/>
	<path d="M17.8,2.8H1.3c-0.6,0-1-0.4-1-1s0.4-1,1-1h16.5c0.6,0,1,0.4,1,1S18.3,2.8,17.8,2.8z"/>
</g>
<g>
	<line x1="1.3" y1="9" x2="17.8" y2="9"/>
	<path d="M17.8,10H1.3c-0.6,0-1-0.4-1-1s0.4-1,1-1h16.5c0.6,0,1,0.4,1,1S18.3,10,17.8,10z"/>
</g>
<g>
	<line x1="1.3" y1="16.2" x2="17.8" y2="16.2"/>
	<path d="M17.8,17.2H1.3c-0.6,0-1-0.4-1-1s0.4-1,1-1h16.5c0.6,0,1,0.4,1,1S18.3,17.2,17.8,17.2z"/>
</g>
</svg>
