<svg viewBox="0 0 1200 1200" xmlns="http://www.w3.org/2000/svg"><path d="m600 99.984c-27.609 0-50.016 22.781-50.016 50.812v203.21c0 28.078 22.406 50.812 50.016 50.812s50.016-22.734 50.016-50.812v-203.21c0-28.031-22.406-50.812-50.016-50.812zm-161.9 116.06c30.938-12.141 61.922 12.938 61.922 46.641 0 23.25-15.234 43.359-36.281 52.453-125.63 54-213.74 180.37-213.74 327.66 0 196.4 156.71 355.6 350.02 355.6s350.02-159.19 350.02-355.6c0-147.28-88.125-273.66-213.74-327.66-21.047-9.0938-36.281-29.203-36.281-52.453 0-33.703 30.984-58.781 61.922-46.641 168.52 66.047 288.1 232.22 288.1 426.74 0 252.52-201.47 457.22-450 457.22s-450-204.71-450-457.22c0-194.53 119.58-360.71 288.1-426.74z" fill-rule="evenodd"/></svg>