<?xml version="1.0" encoding="UTF-8"?>
<svg width="1200pt" height="1200pt" version="1.1" viewBox="0 0 1200 1200" xmlns="http://www.w3.org/2000/svg">
 <path d="m1113.4 445.08h-63.469v-226.31c0-6.5625-2.7188-13.031-7.4531-17.625l-199.5-194.16c-4.5938-4.4062-10.781-6.9375-17.156-6.9844h-595.69c-44.109 0-80.016 35.906-80.016 80.016v365.06h-63.469c-13.594 0-24.609 11.016-24.609 24.609v345.32c0 13.594 11.016 24.609 24.609 24.609h63.469v280.4c0 44.062 35.906 79.969 80.016 79.969h739.78c44.109 0 80.016-35.906 80.016-80.016v-280.4h63.469c13.594 0 24.609-11.016 24.609-24.609l-0.046875-345.28c0-13.594-11.016-24.609-24.562-24.609zm-262.97-362.26 114.23 111.19-77.438-0.1875c-20.297-0.046874-36.797-16.594-36.797-36.891zm-651.14-2.8125c0-17.016 13.828-30.844 30.844-30.844h571.13v107.81c0 47.344 38.531 85.969 85.875 86.062l113.62 0.28125v201.74h-801.47zm801.47 1040c0 17.016-13.828 30.844-30.844 30.844h-739.78c-17.016 0-30.844-13.828-30.844-30.844l0.046875-280.4h801.42zm88.031-329.58h-977.53v-296.16h977.53z"/>
 <path d="m395.26 537.98h-71.625c-13.594 0-24.609 11.016-24.609 24.609v173.21c0 13.594 11.016 24.609 24.609 24.609s24.609-11.016 24.609-24.609v-48.094h47.062c41.25 0 74.859-33.562 74.859-74.859-0.046874-41.297-33.609-74.859-74.906-74.859zm0 100.5h-47.062v-51.328h47.062c14.156 0 25.641 11.531 25.641 25.641 0.046874 14.203-11.484 25.688-25.641 25.688z"/>
 <path d="m876.37 537.98h-111.19c-13.594 0-24.609 11.016-24.609 24.609v173.21c0 13.594 11.016 24.609 24.609 24.609s24.609-11.016 24.609-24.609v-66.281h73.781c13.594 0 24.609-11.016 24.609-24.609s-11.016-24.609-24.609-24.609h-73.781v-33.141h86.578c13.594 0 24.609-11.016 24.609-24.609 0-13.547-11.016-24.562-24.609-24.562z"/>
 <path d="m582.66 537.98h-42.75c-13.594 0-24.609 11.016-24.609 24.609v173.21c0 13.594 11.016 24.609 24.609 24.609h42.75c61.312 0 111.19-49.875 111.19-111.19 0.046875-61.359-49.875-111.23-111.19-111.23zm0 173.21h-18.188v-124.03h18.188c34.172 0 62.016 27.797 62.016 62.016s-27.797 62.016-62.016 62.016z"/>
</svg>
