<svg enable-background="new 0 0 12.6 15" viewBox="0 0 12.6 15" xmlns="http://www.w3.org/2000/svg"><path d="m11.1 1.5h-2.2c0-.4-.2-.8-.4-1.1-.3-.2-.7-.4-1.1-.4h-2.2c-.4 0-.8.2-1 .4-.3.3-.5.7-.5 1.1h-2.2c-.4 0-.8.2-1 .4-.3.3-.5.7-.5 1.1v10.5c0 .4.2.8.4 1.1.3.3.6.4 1 .4h9.6c.4 0 .8-.2 1-.4.3-.3.4-.7.4-1.1v-10.5c0-.4-.2-.8-.4-1.1-.2-.2-.5-.4-.9-.4zm-3.7 0v2.2h-2.2v-2.2zm1.5 9.7h-5.2c-.2 0-.4-.1-.5-.2s-.2-.3-.2-.5.1-.4.2-.5.3-.2.5-.2h5.1c.2 0 .4.1.5.2s.2.3.2.5 0 .4-.1.5c-.2.2-.3.2-.5.2zm0-3h-5.2c-.2 0-.4 0-.5-.2-.1-.1-.2-.3-.2-.5s.1-.4.2-.5.3-.2.5-.2h5.1c.2 0 .4.1.5.2s.2.3.2.5 0 .4-.1.5c-.2.2-.3.2-.5.2z"/></svg>