<svg height="1200pt" viewBox="0 0 1200 1200" width="1200pt" xmlns="http://www.w3.org/2000/svg"><path d="m558.73 90c-45.168 0-82.473 37.309-82.473 82.477v30.465c-24.012 7.4727-47.289 17.105-69.562 28.781l-21.504-21.504c-31.949-31.949-84.719-31.949-116.67 0l-58.312 58.312c-31.949 31.949-31.949 84.719 0 116.67l21.504 21.504c-11.68 22.273-21.309 45.547-28.785 69.559h-30.465c-45.168 0-82.473 37.309-82.473 82.473v82.531c0 45.168 37.305 82.473 82.473 82.473h30.465c7.4727 24.012 17.105 47.289 28.785 69.559l-21.504 21.504c-31.949 31.949-31.949 84.719 0 116.67l58.312 58.309c31.949 31.949 84.719 31.949 116.67 0l21.504-21.504c22.273 11.68 45.551 21.312 69.562 28.785v30.461c0 45.168 37.305 82.473 82.473 82.473h82.531c45.168 0 82.473-37.309 82.473-82.473v-30.461c24.012-7.4727 47.289-17.105 69.562-28.785l21.504 21.504c31.949 31.949 84.719 31.949 116.67 0l58.309-58.309c31.949-31.949 31.949-84.719 0-116.67l-21.504-21.504c11.68-22.27 21.312-45.547 28.785-69.559h30.465c45.168 0 82.473-37.309 82.473-82.473v-82.531c0-45.168-37.305-82.473-82.473-82.473h-30.285c-7.4961-24.051-17.152-47.359-28.863-69.66l21.402-21.402c31.949-31.949 31.949-84.715 0-116.67l-58.309-58.312c-31.949-31.949-84.719-31.949-116.67 0l-21.398 21.402c-22.305-11.711-45.613-21.367-69.664-28.863v-30.281c0-45.168-37.305-82.477-82.473-82.477zm0 60h82.531c13.004 0 22.473 9.4688 22.473 22.473v52.938h.003907c0 6.6914 2.2344 13.188 6.3477 18.461 4.1172 5.2695 9.875 9.0156 16.363 10.641 34.035 8.5156 66.621 22.023 96.711 40.066v.003906c5.7383 3.4414 12.457 4.8633 19.098 4.0469s12.816-3.832 17.547-8.5586l37.422-37.422c9.1836-9.1836 22.629-9.1836 31.812 0l58.312 58.309c9.1836 9.1836 9.1836 22.633 0 31.816l-37.422 37.422c-4.7305 4.7305-7.7422 10.906-8.5586 17.543-.82031 6.6406.60547 13.363 4.0469 19.098 18.047 30.086 31.547 62.676 40.066 96.711 1.625 6.4883 5.3711 12.246 10.645 16.363 5.2734 4.1172 11.77 6.3516 18.457 6.3516h52.938c13.004 0 22.473 9.4688 22.473 22.473v82.531c0 13.004-9.4688 22.473-22.473 22.473h-53.125v.003907c-6.6875 0-13.188 2.2344-18.461 6.3516-5.2734 4.1172-9.0195 9.8789-10.641 16.371-8.5039 34-21.973 66.559-39.984 96.625-3.4336 5.7383-4.8555 12.457-4.0352 19.094.82031 6.6328 3.832 12.805 8.5586 17.535l37.516 37.516c9.1836 9.1836 9.1836 22.629 0 31.812l-58.312 58.312c-9.1836 9.1836-22.629 9.1836-31.812 0l-37.516-37.516c-4.7266-4.7305-10.898-7.7422-17.535-8.5625-6.6367-.82031-13.355.60156-19.094 4.0391-30.066 18.008-62.625 31.48-96.625 39.984v-.003907c-6.4883 1.625-12.25 5.3711-16.367 10.645-4.1172 5.2734-6.3516 11.77-6.3516 18.461v53.121c0 13.004-9.4688 22.473-22.473 22.473h-82.531c-13.004 0-22.473-9.4688-22.473-22.473v-53.121h-.007813c0-6.6914-2.2344-13.188-6.3516-18.461-4.1172-5.2734-9.8789-9.0195-16.367-10.645-34-8.5039-66.559-21.977-96.625-39.984v.003906c-5.7383-3.4375-12.457-4.8594-19.094-4.0391-6.6367.82031-12.809 3.832-17.535 8.5625l-37.516 37.516c-9.1836 9.1836-22.633 9.1836-31.816 0l-58.309-58.312c-9.1836-9.1836-9.1836-22.629 0-31.812l37.516-37.516c4.7266-4.7305 7.7422-10.902 8.5586-17.535.82031-6.6367-.59766-13.355-4.0352-19.094-18.008-30.066-31.48-62.625-39.98-96.625-1.6211-6.4922-5.3672-12.254-10.641-16.371s-11.773-6.3516-18.465-6.3516h-53.125c-13.004 0-22.473-9.4688-22.473-22.473v-82.531c0-13.004 9.4688-22.473 22.473-22.473h53.125v-.003906c6.6914 0 13.191-2.2383 18.465-6.3555s9.0195-9.8789 10.641-16.367c8.5039-34 21.973-66.559 39.98-96.621v-.003907c3.4375-5.7344 4.8555-12.453 4.0391-19.09-.82031-6.6367-3.8359-12.809-8.5625-17.539l-37.516-37.516c-9.1836-9.1836-9.1836-22.633 0-31.816l58.309-58.309c9.1836-9.1836 22.633-9.1836 31.816 0l37.516 37.516c4.7266 4.7305 10.898 7.7422 17.535 8.5625 6.6367.82031 13.355-.60156 19.094-4.0352 30.066-18.008 62.625-31.48 96.625-39.98v-.003906c6.4883-1.6211 12.25-5.3672 16.367-10.641s6.3516-11.773 6.3516-18.461v-53.121c0-13.004 9.4688-22.473 22.473-22.473zm41.266 193.28c-141.43 0-256.71 115.29-256.71 256.72s115.29 256.71 256.71 256.71 256.71-115.29 256.71-256.71-115.29-256.72-256.71-256.72zm0 60c109 0 196.72 87.719 196.72 196.71 0 109-87.719 196.71-196.72 196.71-109 0-196.71-87.715-196.71-196.71 0-109 87.719-196.71 196.71-196.71z" fill-rule="evenodd"/></svg>