<svg viewBox="0 0 11 15" xmlns="http://www.w3.org/2000/svg"><path d="m9.50142 5.62487c-.26488-.00005-.51888-.09886-.70615-.27469l-3.28903-3.08723-3.28903 3.08723c-.09213.08955-.20234.16097-.3242.2101-.12186.04914-.25292.075-.38554.07608s-.26414-.02264-.38689-.06978c-.122743-.04714-.234261-.11675-.32804-.20478-.09378-.08802-.167943-.1927-.218163-.30791-.050221-.11522-.075492-.23867-.074339-.36315.001152-.12449.028705-.24751.081051-.36189s.128436-.21783.223831-.30431l3.99518-3.750049c.1873-.1757564.4413-.274491.70614-.274491.26485 0 .51885.0987346.70615.274491l3.99521 3.750049c.1396.13111.2347.29814.2732.47998.0385.18183.0188.3703-.0568.54159-.0756.17128-.2036.31768-.3678.4207s-.35727.15803-.55478.15806z"/><path d="m5.50624 15c-.26487-.0001-.51888-.0989-.70614-.2747l-3.99518-3.75c-.095395-.0865-.171485-.19-.223831-.3044-.052346-.1143-.079899-.2374-.081051-.3618-.001153-.1245.024118-.248.074339-.36319.05022-.11521.124383-.21989.218163-.30791.093779-.08803.205297-.15764.32804-.20478.12275-.04714.25427-.07086.38689-.06978s.26368.02694.38554.07608c.12186.04913.23207.12055.3242.2101l3.28903 3.08718 3.28903-3.08718c.18838-.17078.44067-.26528.70255-.26314s.51238.10073.69758.27456c.1852.17382.2902.40896.2925.65476s-.0984.4826-.2803.6595l-3.99521 3.75c-.18727.1758-.44127.2746-.70615.2747z"/></svg>