<svg xmlns="http://www.w3.org/2000/svg" xmlns:xlink="http://www.w3.org/1999/xlink"
	 viewBox="0 0 24 19" style="enable-background:new 0 0 24 19;" xml:space="preserve">
<path d="M21.7,18.8H2.3c-1.2,0-2.1-0.9-2.1-2.1V2.4c0-1.2,0.9-2.1,2.1-2.1h19.4c1.2,0,2.1,0.9,2.1,2.1v14.3
	C23.8,17.8,22.8,18.8,21.7,18.8z M12.8,16.7c0,0.2,0.2,0.4,0.4,0.4h8.4c0.2,0,0.4-0.2,0.4-0.4V15c0-0.2-0.2-0.4-0.4-0.4h-8.4
	c-0.2,0-0.4,0.2-0.4,0.4V16.7z M2.3,17.1h8.4c0.2,0,0.4-0.2,0.4-0.4V15c0-0.2-0.2-0.4-0.4-0.4H2.3c-0.2,0-0.4,0.2-0.4,0.4v1.7
	C1.9,16.9,2.1,17.1,2.3,17.1z M13.3,12.9h8.4c0.2,0,0.4-0.2,0.4-0.4v-1.7c0-0.2-0.2-0.4-0.4-0.4h-8.4c-0.2,0-0.4,0.2-0.4,0.4v1.7
	C12.8,12.7,13,12.9,13.3,12.9z M2.3,12.9h8.4c0.2,0,0.4-0.2,0.4-0.4v-1.7c0-0.2-0.2-0.4-0.4-0.4H2.3c-0.2,0-0.4,0.2-0.4,0.4v1.7
	C1.9,12.7,2.1,12.9,2.3,12.9z M21.7,8.7c0.2,0,0.4-0.2,0.4-0.4V6.6c0-0.2-0.2-0.4-0.4-0.4h-8.4c-0.2,0-0.4,0.2-0.4,0.4v1.7
	c0,0.2,0.2,0.4,0.4,0.4H21.7z M2.3,8.7h8.4c0.2,0,0.4-0.2,0.4-0.4V6.6c0-0.2-0.2-0.4-0.4-0.4H2.3c-0.2,0-0.4,0.2-0.4,0.4v1.7
	C1.9,8.5,2.1,8.7,2.3,8.7z M21.7,4.5c0.2,0,0.4-0.2,0.4-0.4V2.4c0-0.2-0.2-0.4-0.4-0.4H2.3c-0.2,0-0.4,0.2-0.4,0.4v1.7
	c0,0.2,0.2,0.4,0.4,0.4H21.7z"/>
</svg>
