<svg height="1200pt" viewBox="0 0 1200 1200" width="1200pt" xmlns="http://www.w3.org/2000/svg"><path d="m600.2 1087.4c11.051 0 20-8.9492 20-20v-239.95l66.301 72.5c3.8984 4.3008 9.3516 6.5 14.75 6.5 4.8516 0 9.6484-1.75 13.5-5.1992 8.1484-7.4492 8.75-20.102 1.25-28.25l-101.05-110.7c-.050781-.050781-.14844-.10156-.19922-.14844-.30078-.30078-.55078-.55078-.85156-.85156-.10156-.10156-.10156-.19922-.19922-.30078-.64844-.55078-1.3984-.80078-2.1016-1.25-.44922-.30078-.89844-.64844-1.3516-.89844-.64844-.39844-1.1992-1-1.8984-1.3008-.30078-.14844-.60156-.19922-.89844-.30078-1.1992-.44922-2.3984-.55078-3.6484-.80078-1.0508-.19922-2.0508-.55078-3.1016-.60156-.14844 0-.25-.10156-.39844-.10156s-.25.10156-.39844.10156c-1.1992 0-2.3516.39844-3.5508.64844-1.1484.25-2.25.30078-3.3516.75-.25.10156-.44922.14844-.69922.25-1.1016.44922-2 1.3008-3 2-.85156.55078-1.8008.85156-2.5508 1.5508-.14844.10156-.19922.30078-.30078.39844-.19922.14844-.35156.35156-.5.5s-.35156.19922-.5.35156l-101.4 111.25c-7.3984 8.1484-6.8516 20.852 1.3008 28.25 3.8516 3.5 8.6484 5.1992 13.5 5.1992 5.3984 0 10.852-2.1992 14.801-6.5l66.648-73.102v239.95c-.10156 11.055 8.8984 20.055 19.898 20.055z"/><path d="m121.35 1087.4 223.85.050781c11.051 0 20-8.9492 20-20s-9-20-20-20l-223.85-.050781c-62.148 0-78.102-33.301-80.5-61.25 0-.25-.050781-.5-.050781-.80078v-590.55c0-44.102 35.898-80 80-80h430.8c1.1992 0 2.1992-.5 3.3516-.69922 1 .14844 1.8516.75 2.8516.75h.050781c127.1-.19922 254.15-.19922 381.3-.14844h138.65c73.5 0 81.398 42.602 81.398 60.898v607.45c-.10156.85156-.19922 1.6016-.25 2.0508-4.25 41.898-29.148 62.301-76.199 62.301l-227.95.050781c-11.051 0-20 8.9492-20 20 .050781 11.051 9 20 20 20l227.95-.050781c67.449 0 109.7-35.801 115.65-97.449.55078-1.8516.85156-3.75.85156-5.6484l-.003906-608.7c0-46.551-31.852-100.9-121.45-100.9h-138.65c-123.3-.050781-246.7-.050781-369.95.14844l-68.75-115.45c-21.699-31.148-51.102-46.352-90-46.449-98.953-.45312-197.8-.60156-296.3.097656-89.648 0-113.4 66.5-113.4 101.7v771.75c0 1.0508.10156 2.1016.25 3.1016 2 22.949 16.551 97.797 120.35 97.797zm-7.0508-934.35c98.602-.64844 197.2-.44922 296-.10156 25.949.10156 43.051 8.8516 56.551 28.148l55.75 93.75-401.8.003906c-30.852 0-58.699 12-80 31.199v-91.199c.14844-10.301 4.3984-61.801 73.5-61.801z"/></svg>